<?xml version="1.0" standalone="no"?>
<!DOCTYPE svg PUBLIC "-//W3C//DTD SVG 20010904//EN"
 "http://www.w3.org/TR/2001/REC-SVG-20010904/DTD/svg10.dtd">
<svg version="1.0" xmlns="http://www.w3.org/2000/svg"
 width="261.000000pt" height="261.000000pt" viewBox="0 0 261.000000 261.000000"
 preserveAspectRatio="xMidYMid meet">
<metadata>
Created by potrace 1.11, written by Peter Selinger 2001-2013
</metadata>
<g transform="translate(0.000000,261.000000) scale(0.100000,-0.100000)"
fill="#000000" stroke="none">
<path d="M2354 2439 c-3 -5 0 -9 5 -9 6 0 11 -4 11 -10 0 -5 -3 -9 -7 -9 -5 1
-11 0 -15 -1 -5 -1 -12 -3 -18 -4 -5 0 -11 -5 -12 -11 -3 -15 -22 -34 -29 -29
-4 2 -9 -3 -13 -11 -3 -8 -11 -15 -18 -15 -9 0 -8 3 2 10 8 5 11 10 5 10 -5 0
-17 -5 -25 -10 -10 -6 -11 -10 -2 -10 28 0 9 -20 -20 -21 -30 0 -31 -1 -10 -9
12 -5 22 -11 22 -14 0 -2 -10 -2 -22 1 -19 4 -20 3 -8 -6 12 -8 8 -11 -17 -11
-27 0 -33 -4 -33 -21 0 -19 -2 -20 -17 -8 -11 10 -14 10 -9 2 5 -9 -2 -13 -23
-13 -33 0 -38 -8 -18 -29 6 -7 8 -12 2 -11 -22 5 -55 0 -54 -7 4 -26 -4 -33
-41 -33 -33 0 -40 -3 -40 -20 0 -23 -10 -25 -29 -7 -11 10 -13 10 -7 0 5 -9
-2 -13 -24 -13 -22 0 -29 -4 -24 -12 6 -10 4 -10 -7 0 -18 17 -26 15 -32 -8
-4 -16 -14 -20 -49 -21 -23 -1 -50 -1 -58 0 -8 1 -4 -5 9 -12 15 -9 20 -17 12
-21 -6 -4 -11 -2 -11 3 0 6 -7 11 -15 11 -8 0 -15 -4 -15 -10 0 -5 -11 -10
-25 -10 -14 0 -25 -6 -25 -12 0 -8 -3 -9 -8 -3 -9 13 -52 15 -52 3 0 -5 6 -8
14 -6 8 2 14 -1 13 -6 -2 -11 -38 -17 -103 -19 -26 -1 -41 -6 -41 -14 0 -9 4
-10 12 -3 8 7 12 5 12 -5 0 -16 -22 -21 -31 -6 -3 4 -6 21 -8 37 l-2 29 -89 3
c-55 2 -86 -1 -83 -7 4 -5 2 -13 -4 -16 -6 -4 -9 -1 -8 7 4 17 -150 21 -171 4
-10 -7 -13 -7 -8 0 4 7 -8 11 -34 12 -28 1 -38 -2 -33 -10 5 -7 3 -8 -7 -2
-22 14 -141 14 -158 1 -12 -9 -13 -9 -7 1 5 9 -4 12 -34 12 -29 0 -39 -4 -34
-12 5 -7 3 -8 -7 -2 -22 14 -141 14 -158 1 -9 -7 -12 -8 -8 -1 4 7 -8 11 -34
12 -28 1 -38 -2 -33 -10 5 -7 3 -8 -7 -2 -22 14 -141 14 -158 1 -12 -9 -13 -9
-7 1 5 9 -4 12 -34 12 -30 0 -39 -3 -34 -12 6 -10 4 -10 -7 -2 -20 15 -179 16
-198 1 -9 -7 -12 -7 -8 -1 4 7 -4 11 -23 12 -21 0 -27 -3 -24 -13 3 -8 2 -20
-2 -27 -4 -7 -7 -48 -7 -92 1 -70 -1 -78 -13 -62 -7 11 -11 23 -7 29 3 6 1 7
-5 3 -9 -5 -9 -13 -2 -26 13 -24 13 -33 -1 -24 -8 4 -8 0 0 -15 13 -24 23 -28
15 -6 -4 8 -2 15 3 15 5 0 9 -15 9 -32 -1 -33 -8 -40 -23 -24 -5 5 -3 6 5 2 6
-4 12 -3 12 2 0 6 -6 12 -12 15 -10 3 -13 -11 -14 -49 0 -55 4 -62 22 -44 7 7
11 6 11 -4 0 -8 -4 -13 -9 -10 -13 8 -9 -10 5 -25 6 -7 8 -12 2 -11 -30 6 -32
-3 -31 -191 0 -104 2 -185 4 -180 2 6 9 8 15 4 7 -4 6 1 -2 10 -7 10 -9 17 -3
17 6 0 9 8 7 18 -2 9 -4 17 -6 17 -1 0 -2 12 -3 27 -1 15 1 25 5 22 4 -2 9 -1
12 3 5 10 -1 -12 -10 -34 -3 -9 -2 -14 3 -11 5 4 9 -26 10 -68 1 -41 -2 -74
-7 -74 -4 0 -6 15 -4 33 2 17 1 26 -2 19 -2 -6 -8 -10 -12 -8 -4 3 -8 -1 -8
-9 0 -8 4 -15 9 -15 4 0 7 -3 7 -7 -3 -18 2 -34 9 -30 4 3 8 -38 10 -90 1 -52
4 -98 6 -102 3 -4 26 -8 51 -10 34 -1 45 1 39 10 -5 8 -3 9 7 3 8 -5 22 -9 32
-10 35 -3 38 -4 32 -13 -3 -5 -1 -13 5 -16 8 -5 7 -12 -2 -23 -10 -14 -10 -15
2 -5 8 7 21 13 29 13 13 -1 13 -3 -2 -14 -16 -12 -16 -14 -1 -20 14 -5 14 -9
3 -22 -9 -11 -10 -17 -1 -23 6 -4 8 -12 3 -20 -5 -7 -6 -22 -4 -32 3 -10 1
-19 -5 -19 -6 0 -9 10 -8 23 2 12 0 32 -4 42 -4 12 -7 -4 -7 -37 1 -32 5 -58
10 -58 4 0 5 5 2 10 -3 6 1 10 10 10 12 0 14 -4 5 -19 -13 -26 -13 -34 3 -25
7 5 6 0 -3 -11 -11 -13 -12 -19 -3 -22 13 -5 6 -33 -9 -33 -5 0 -7 4 -4 8 2 4
0 14 -5 22 -7 11 -8 8 -5 -10 2 -14 -2 -32 -8 -40 -9 -13 -9 -13 6 -2 9 8 23
10 29 6 9 -5 8 -9 -6 -14 -12 -4 -19 -18 -20 -43 -2 -20 1 -37 7 -37 5 0 6 5
3 10 -3 6 1 10 10 10 12 0 14 -4 5 -19 -5 -11 -6 -22 -2 -25 8 -5 7 -41 -2
-85 -3 -14 -1 -30 5 -38 13 -15 -2 -18 -17 -3 -7 7 -11 6 -11 -4 0 -8 4 -13 9
-10 4 3 11 -2 15 -11 3 -10 0 -20 -6 -25 -9 -5 -8 -9 4 -14 14 -5 15 -9 4 -22
-10 -13 -10 -17 0 -24 9 -5 10 -10 2 -14 -6 -4 -11 -12 -11 -17 0 -6 6 -7 13
-3 9 6 9 4 -1 -8 -7 -9 -9 -19 -5 -21 5 -3 8 -24 6 -47 -1 -23 2 -38 8 -35 5
4 9 1 9 -4 0 -6 -6 -11 -12 -11 -10 0 -10 -2 -1 -8 9 -6 1830 -7 1886 -1 15 2
17 16 17 127 l0 124 40 -6 c29 -4 39 -2 34 6 -5 7 -3 8 7 3 19 -12 79 -13 72
-1 -4 5 0 6 7 1 20 -12 60 -12 52 0 -3 5 2 4 11 -4 11 -9 17 -10 18 -2 3 26 4
30 13 38 5 5 6 3 2 -4 -4 -7 -3 -13 3 -13 5 0 16 6 23 13 7 6 20 12 28 12 12
0 15 15 15 77 0 43 4 78 9 78 5 0 4 6 -1 12 -6 7 -9 41 -7 76 3 48 1 62 -8 57
-7 -4 -5 0 4 7 9 8 13 19 9 26 -4 7 -6 39 -4 73 2 46 0 59 -9 54 -7 -4 -5 0 4
7 9 8 13 19 9 26 -4 7 -6 39 -4 73 2 46 0 59 -9 54 -7 -4 -5 0 4 7 9 8 13 19
9 26 -4 7 -6 39 -4 73 2 46 0 59 -9 54 -7 -4 -5 0 4 8 10 8 15 17 11 21 -3 3
-7 38 -7 78 -1 68 -2 72 -26 78 -14 3 -43 5 -65 4 -22 -1 -34 1 -27 3 6 3 12
12 12 21 0 12 -4 11 -23 -6 -13 -12 -27 -22 -31 -22 -5 0 2 8 14 18 22 18 22
18 -56 19 -126 1 -126 1 -122 20 2 11 15 18 38 21 19 2 40 8 47 13 6 6 14 6
17 1 3 -4 24 -7 48 -6 59 3 58 3 58 13 0 4 -25 7 -55 6 -31 -1 -58 1 -60 5 -6
9 268 9 285 -1 10 -5 11 -8 3 -9 -7 0 -13 -4 -13 -9 0 -4 17 -8 37 -7 l38 1 1
52 c1 36 -3 53 -12 57 -11 4 -12 1 -4 -14 13 -25 13 -30 -3 -24 -9 3 -13 20
-12 44 1 22 -1 40 -5 40 -3 0 -5 17 -5 38 1 20 -5 45 -14 55 -17 21 -23 47
-11 47 14 0 21 -18 9 -22 -7 -2 -6 -8 4 -16 12 -11 15 -8 13 17 0 16 -3 28 -6
26 -16 -10 -30 16 -31 58 -2 28 -6 44 -12 40 -6 -4 -7 -1 -1 8 15 24 13 39 -6
39 -20 0 -32 31 -19 51 4 7 4 18 0 24 -4 5 -7 28 -6 51 1 36 -2 40 -19 36 -14
-4 -18 -1 -14 10 4 8 2 21 -2 28 -5 7 -4 24 1 37 5 12 5 23 1 23 -5 0 -8 32
-7 70 1 73 -7 105 -19 75 -3 -10 -2 -23 4 -30 7 -8 6 -12 -4 -12 -10 0 -13 10
-10 33 2 18 -1 36 -6 39 -12 7 -4 25 12 25 5 0 8 -6 5 -13 -3 -8 1 -14 8 -14
10 0 11 5 5 17 -5 10 -6 20 -3 24 3 3 1 6 -7 6 -10 0 -10 3 1 18 11 14 11 15
-1 5 -19 -17 -33 -16 -27 1 6 16 -30 30 -39 15z m-2069 -429 c3 -5 1 -10 -4
-10 -6 0 -11 5 -11 10 0 6 2 10 4 10 3 0 8 -4 11 -10z m240 0 c3 -5 1 -10 -4
-10 -6 0 -11 5 -11 10 0 6 2 10 4 10 3 0 8 -4 11 -10z m240 0 c3 -5 1 -10 -4
-10 -6 0 -11 5 -11 10 0 6 2 10 4 10 3 0 8 -4 11 -10z m240 0 c3 -5 1 -10 -4
-10 -6 0 -11 5 -11 10 0 6 2 10 4 10 3 0 8 -4 11 -10z m439 2 c2 -4 -4 -9 -15
-9 -11 -1 -17 2 -14 8 7 11 22 12 29 1z m84 -47 c-3 -3 -9 2 -12 12 -6 14 -5
15 5 6 7 -7 10 -15 7 -18z m-1491 -241 c0 -7 -4 -11 -8 -8 -4 2 -9 -2 -12 -8
-3 -7 -5 -4 -4 8 1 22 24 30 24 8z m-2 -104 c3 -6 -1 -7 -9 -4 -18 7 -21 14
-7 14 6 0 13 -4 16 -10z m0 -30 c3 -5 2 -10 -4 -10 -5 0 -13 5 -16 10 -3 6 -2
10 4 10 5 0 13 -4 16 -10z m0 -38 c-3 -3 -11 0 -18 7 -9 10 -8 11 6 5 10 -3
15 -9 12 -12z m-6 -38 c-6 -8 -15 -12 -18 -8 -3 4 0 9 7 11 6 3 9 10 6 15 -4
7 -2 8 5 4 9 -6 9 -11 0 -22z m2555 -10 c3 -15 -2 -20 -17 -22 -17 -1 -19 1
-7 8 13 9 13 10 0 10 -12 0 -13 2 -1 9 8 5 10 14 6 22 -6 10 -5 11 4 3 6 -6
13 -19 15 -30z m-361 -9 c-3 -9 -8 -14 -10 -11 -3 3 -2 9 2 15 9 16 15 13 8
-4z m-2192 -22 c0 -5 2 -16 4 -25 2 -12 -2 -15 -13 -10 -11 4 -12 7 -4 10 10
3 10 7 1 18 -8 10 -8 14 0 14 6 0 11 -3 12 -7z m-1 -57 c0 -3 -4 -8 -10 -11
-5 -3 -10 -1 -10 4 0 6 5 11 10 11 6 0 10 -2 10 -4z m2163 -9 c6 -15 -29 -21
-38 -6 -4 5 2 6 11 2 12 -4 15 -3 10 5 -4 7 -3 12 2 12 6 0 12 -6 15 -13z m75
0 c8 -5 20 -3 30 4 16 12 16 12 1 -5 -13 -14 -21 -16 -36 -7 -13 7 -23 7 -30
0 -6 -6 -14 -5 -21 4 -9 11 -6 13 16 13 15 -1 33 -5 40 -9z m-2203 -386 c3 -5
2 -12 -3 -15 -5 -3 -9 1 -9 9 0 17 3 19 12 6z m175 -56 c0 -8 -4 -15 -9 -15
-13 0 -22 16 -14 24 11 11 23 6 23 -9z m0 -355 c0 -11 -4 -20 -8 -20 -4 0 -8
9 -8 20 0 11 4 20 8 20 4 0 8 -9 8 -20z m2227 -167 c0 -9 -4 -10 -14 -2 -7 6
-13 12 -13 14 0 1 6 2 13 2 8 0 14 -6 14 -14z m-257 -43 c0 -5 -5 -10 -11 -10
-5 0 -7 5 -4 10 3 6 8 10 11 10 2 0 4 -4 4 -10z m150 6 c0 -2 -7 -7 -16 -10
-8 -3 -12 -2 -9 4 6 10 25 14 25 6z m-225 -254 c-3 -3 -11 0 -18 7 -9 10 -8
11 6 5 10 -3 15 -9 12 -12z"/>
<path d="M1910 2156 c0 -2 7 -7 16 -10 8 -3 12 -2 9 4 -6 10 -25 14 -25 6z"/>
<path d="M2454 2115 c0 -13 4 -21 8 -19 5 3 6 9 3 14 -3 4 0 10 7 12 8 3 7 6
-3 10 -11 4 -15 -1 -15 -17z"/>
<path d="M1800 2110 c-9 -6 -10 -10 -3 -10 6 0 15 5 18 10 8 12 4 12 -15 0z"/>
<path d="M0 1660 c0 -5 5 -10 11 -10 5 0 7 5 4 10 -3 6 -8 10 -11 10 -2 0 -4
-4 -4 -10z"/>
<path d="M2370 1490 c0 -5 5 -10 10 -10 6 0 10 5 10 10 0 6 -4 10 -10 10 -5 0
-10 -4 -10 -10z"/>
<path d="M2485 1491 c-6 -11 9 -23 19 -14 9 9 7 23 -3 23 -6 0 -12 -4 -16 -9z"/>
<path d="M2386 1423 c-11 -11 -6 -19 14 -20 11 -1 20 4 20 10 0 8 2 9 8 1 9
-13 42 -14 42 -1 0 5 -6 7 -14 4 -8 -3 -17 -3 -20 1 -9 9 -42 12 -50 5z"/>
<path d="M204 509 c-5 -8 -3 -9 6 -4 10 6 11 2 6 -19 -4 -18 -3 -25 4 -21 13
8 13 42 1 50 -5 3 -13 0 -17 -6z"/>
<path d="M2425 390 c-4 -6 -11 -7 -17 -4 -7 4 -8 2 -4 -5 6 -9 11 -9 22 0 14
11 18 19 10 19 -3 0 -8 -5 -11 -10z"/>
<path d="M210 325 c0 -8 2 -15 4 -15 2 0 6 7 10 15 3 8 1 15 -4 15 -6 0 -10
-7 -10 -15z"/>
<path d="M290 110 c0 -5 5 -10 11 -10 5 0 7 5 4 10 -3 6 -8 10 -11 10 -2 0 -4
-4 -4 -10z"/>
<path d="M368 104 c10 -7 18 -9 20 -3 3 6 10 5 18 -2 12 -9 13 -9 9 3 -3 8
-19 15 -35 15 -26 0 -27 -2 -12 -13z"/>
<path d="M430 109 c0 -5 5 -7 10 -4 6 3 10 8 10 11 0 2 -4 4 -10 4 -5 0 -10
-5 -10 -11z"/>
<path d="M464 104 c-18 -14 -18 -14 6 -3 31 14 36 19 24 19 -6 0 -19 -7 -30
-16z"/>
<path d="M562 105 c14 -15 21 -16 30 -7 8 8 15 9 25 1 10 -9 13 -8 13 1 0 10
3 10 15 0 13 -11 14 -10 9 3 -6 16 -39 17 -62 3 -7 -4 -21 -2 -30 5 -15 12
-15 11 0 -6z"/>
<path d="M670 109 c0 -5 5 -7 10 -4 6 3 10 8 10 11 0 2 -4 4 -10 4 -5 0 -10
-5 -10 -11z"/>
<path d="M704 104 c-18 -14 -18 -14 6 -3 31 14 36 19 24 19 -6 0 -19 -7 -30
-16z"/>
<path d="M802 105 c14 -15 21 -16 30 -7 8 8 15 9 25 1 10 -9 13 -8 13 1 0 10
3 10 15 0 13 -11 14 -10 9 3 -6 16 -39 17 -62 3 -7 -4 -21 -2 -30 5 -15 12
-15 11 0 -6z"/>
<path d="M910 109 c0 -5 5 -7 10 -4 6 3 10 8 10 11 0 2 -4 4 -10 4 -5 0 -10
-5 -10 -11z"/>
<path d="M944 104 c-18 -14 -18 -14 6 -3 31 14 36 19 24 19 -6 0 -19 -7 -30
-16z"/>
<path d="M1042 105 c14 -15 21 -16 30 -7 8 8 15 9 25 1 10 -9 13 -8 13 1 0 10
3 10 15 0 13 -11 14 -10 9 3 -6 16 -39 17 -62 3 -7 -4 -21 -2 -30 5 -15 12
-15 11 0 -6z"/>
<path d="M1150 109 c0 -5 5 -7 10 -4 6 3 10 8 10 11 0 2 -4 4 -10 4 -5 0 -10
-5 -10 -11z"/>
<path d="M1184 104 c-18 -14 -18 -14 6 -3 31 14 36 19 24 19 -6 0 -19 -7 -30
-16z"/>
<path d="M1282 105 c14 -15 21 -16 30 -7 8 8 15 9 25 1 10 -9 13 -8 13 1 0 10
3 10 15 0 13 -11 14 -10 9 3 -6 16 -39 17 -62 3 -7 -4 -21 -2 -30 5 -15 12
-15 11 0 -6z"/>
<path d="M1390 109 c0 -5 5 -7 10 -4 6 3 10 8 10 11 0 2 -4 4 -10 4 -5 0 -10
-5 -10 -11z"/>
<path d="M1424 104 c-18 -14 -18 -14 6 -3 31 14 36 19 24 19 -6 0 -19 -7 -30
-16z"/>
<path d="M1522 105 c14 -15 21 -16 30 -7 8 8 15 9 25 1 10 -9 13 -8 13 1 0 10
3 10 15 0 13 -11 14 -10 9 3 -6 16 -39 17 -62 3 -7 -4 -21 -2 -30 5 -15 12
-15 11 0 -6z"/>
<path d="M1630 109 c0 -5 5 -7 10 -4 6 3 10 8 10 11 0 2 -4 4 -10 4 -5 0 -10
-5 -10 -11z"/>
<path d="M1664 104 c-18 -14 -18 -14 6 -3 31 14 36 19 24 19 -6 0 -19 -7 -30
-16z"/>
<path d="M1762 105 c14 -15 21 -16 30 -7 8 8 15 9 25 1 10 -9 13 -8 13 1 0 10
3 10 15 0 13 -11 14 -10 9 3 -6 16 -39 17 -62 3 -7 -4 -21 -2 -30 5 -15 12
-15 11 0 -6z"/>
<path d="M1870 109 c0 -5 5 -7 10 -4 6 3 10 8 10 11 0 2 -4 4 -10 4 -5 0 -10
-5 -10 -11z"/>
<path d="M1904 104 c-18 -14 -18 -14 6 -3 31 14 36 19 24 19 -6 0 -19 -7 -30
-16z"/>
<path d="M2002 105 c15 -16 20 -17 30 -6 11 11 10 13 0 7 -7 -4 -21 -2 -30 5
-15 12 -15 11 0 -6z"/>
<path d="M2061 111 c-8 -5 -9 -11 -3 -15 5 -3 12 1 16 9 6 17 6 18 -13 6z"/>
<path d="M2090 105 c-11 -13 -10 -14 4 -9 9 3 16 10 16 15 0 13 -6 11 -20 -6z"/>
<path d="M327 99 c7 -7 15 -10 18 -7 3 3 -2 9 -12 12 -14 6 -15 5 -6 -5z"/>
<path d="M502 102 c-8 -6 -2 -9 18 -9 20 0 26 3 18 9 -7 4 -15 8 -18 8 -3 0
-11 -4 -18 -8z"/>
<path d="M742 102 c-8 -6 -2 -9 18 -9 20 0 26 3 18 9 -7 4 -15 8 -18 8 -3 0
-11 -4 -18 -8z"/>
<path d="M982 102 c-8 -6 -2 -9 18 -9 20 0 26 3 18 9 -7 4 -15 8 -18 8 -3 0
-11 -4 -18 -8z"/>
<path d="M1222 102 c-8 -6 -2 -9 18 -9 20 0 26 3 18 9 -7 4 -15 8 -18 8 -3 0
-11 -4 -18 -8z"/>
<path d="M1462 102 c-8 -6 -2 -9 18 -9 20 0 26 3 18 9 -7 4 -15 8 -18 8 -3 0
-11 -4 -18 -8z"/>
<path d="M1702 102 c-8 -6 -2 -9 18 -9 20 0 26 3 18 9 -7 4 -15 8 -18 8 -3 0
-11 -4 -18 -8z"/>
<path d="M1942 102 c-8 -6 -2 -9 18 -9 20 0 26 3 18 9 -7 4 -15 8 -18 8 -3 0
-11 -4 -18 -8z"/>
</g>
</svg>
